PathFileType	4	(X/Y/Z)	1H_rest_fast_right.trc
DataRate	CameraRate	NumFrames	NumMarkers	Units	OrigDataRate	OrigDataStartFrame	OrigNumFrames
250.00	250.00	10	18	mm	250.00	7270	29078
Frame#	Time	c7	r_should	l_should	clavicle	r_upa	r_elb_l	r_elb_m	r_low	r_wri_l	r_wri_m	r_met	l_upa	l_elb_l	l_elb_m	l_low	l_wri_l	l_wri_m	l_met
	X1	Y1	Z1	X2	Y2	Z2	X3	Y3	Z3	X4	Y4	Z4	X5	Y5	Z5	X6	Y6	Z6	X7	Y7	Z7	X8	Y8	Z8	X9	Y9	Z9	X10	Y10	Z10	X11	Y11	Z11	X12	Y12	Z12	X13	Y13	Z13	X14	Y14	Z14	X15	Y15	Z15	X16	Y16	Z16	X17	Y17	Z17	X18	Y18	Z18
7270	29.07600	616.13391	1419.13123	257.15207	681.94531	1370.02661	393.44067	656.01880	1375.36157	81.66348	746.92853	1283.08887	230.00534	742.70239	1177.65979	465.78439	750.00928	1112.57837	485.88882	691.94580	1058.44568	431.16028	807.67426	1154.11609	369.18033	810.09406	1196.01392	311.37292	818.72760	1128.42078	280.44357	878.34216	1226.41162	252.59384	664.36810	1181.83948	12.18226	681.98657	1072.92615	9.26037	626.96674	1036.86572	67.51231	723.80029	907.12207	13.90010	753.44061	835.94110	46.22276	686.09442	812.61096	29.45900	781.38898	749.25098	20.75643
7271	29.08000	616.15356	1419.13953	257.15192	681.96655	1370.02588	393.44775	656.03870	1375.37354	81.66769	746.94568	1283.08545	230.00990	742.72180	1177.64014	465.76547	750.01154	1112.55798	485.87125	691.95435	1058.44189	431.11230	807.67651	1154.09827	369.17609	810.10840	1196.00793	311.37134	818.75061	1128.39990	280.44067	878.35669	1226.39612	252.59241	664.40894	1181.85059	12.19582	682.01575	1072.93396	9.28124	626.97375	1036.88342	67.51096	723.82996	907.13104	13.90948	753.45911	835.93738	46.22939	686.11945	812.62726	29.43908	781.42212	749.25769	20.77319
7272	29.08400	616.17432	1419.14294	257.15186	681.98975	1370.02344	393.44977	656.06018	1375.37561	81.67444	746.96918	1283.08765	230.00854	742.74310	1177.62231	465.74875	750.00189	1112.52124	485.83667	691.96899	1058.38586	431.03104	807.65948	1154.06018	369.14746	810.12805	1196.00525	311.36304	818.77637	1128.38257	280.43430	878.38116	1226.39124	252.58824	664.44073	1181.85498	12.20123	682.04626	1072.94238	9.29265	626.97046	1036.87329	67.49516	723.86023	907.14062	13.91320	753.44611	835.90509	46.22154	686.13116	812.61371	29.39944	781.45819	749.26648	20.78226
7273	29.08800	616.19281	1419.13745	257.15237	682.02142	1370.02014	393.46152	656.07574	1375.37439	81.68867	746.99182	1283.09399	230.01137	742.76721	1177.60901	465.74490	749.98364	1112.46619	485.79874	691.98981	1058.30359	430.95114	807.64691	1154.01074	369.10434	810.14984	1195.99133	311.35419	818.80328	1128.37048	280.42789	878.41101	1226.38782	252.58055	664.46490	1181.84729	12.21592	682.07501	1072.94482	9.29965	626.96100	1036.83057	67.46825	723.88898	907.14563	13.91792	753.43018	835.86334	46.20589	686.13196	812.57147	29.36536	781.49152	749.27234	20.79181
7274	29.09200	616.20959	1419.12598	257.16327	682.04736	1370.00940	393.47000	656.09253	1375.36548	81.70511	747.01611	1283.10120	230.01465	742.78290	1177.58728	465.74289	749.96381	1112.40894	485.76996	692.00183	1058.22119	430.89893	807.64526	1153.97217	369.07495	810.17377	1195.98169	311.33853	818.82666	1128.35901	280.42841	878.44208	1226.38940	252.57462	664.48114	1181.83386	12.22747	682.10278	1072.94727	9.30234	626.95490	1036.79028	67.45842	723.91437	907.14813	13.92277	753.43652	835.84503	46.19633	686.13385	812.51965	29.35689	781.51959	749.27557	20.79946
7275	29.09600	616.22418	1419.11218	257.17102	682.06158	1369.99854	393.47485	656.10529	1375.35144	81.72028	747.03992	1283.11255	230.01668	742.79596	1177.56555	465.73886	749.96161	1112.38354	485.76169	692.01160	1058.17200	430.88669	807.66547	1153.96216	369.07809	810.19824	1195.98267	311.32578	818.85089	1128.34546	280.43634	878.47662	1226.39014	252.57182	664.49072	1181.82654	12.23740	682.12653	1072.94836	9.30232	626.97229	1036.77173	67.47514	723.93512	907.15271	13.92461	753.46387	835.85376	46.20633	686.15771	812.48596	29.38961	781.54309	749.27612	20.80449
7276	29.10000	616.23828	1419.10547	257.17715	682.07239	1369.98730	393.47958	656.11627	1375.34839	81.73259	747.06427	1283.12122	230.02252	742.80298	1177.55176	465.73099	749.98334	1112.39124	485.77411	691.99915	1058.18054	430.91724	807.70874	1153.97571	369.09311	810.22437	1195.97644	311.32077	818.87372	1128.33594	280.44409	878.50842	1226.38647	252.56813	664.49664	1181.82227	12.24766	682.14673	1072.94727	9.30620	627.00922	1036.77466	67.52232	723.95978	907.15674	13.93478	753.51691	835.88287	46.23174	686.19647	812.48193	29.45048	781.56927	749.27985	20.81440
7277	29.10400	616.25391	1419.10596	257.18692	682.08185	1369.97766	393.48465	656.12939	1375.34814	81.74126	747.08667	1283.12842	230.02438	742.80200	1177.53955	465.73233	750.01575	1112.41016	485.79565	691.98389	1058.22852	430.97571	807.75867	1153.99121	369.11584	810.25195	1195.96936	311.32111	818.90051	1128.32812	280.45230	878.52905	1226.37793	252.56795	664.51074	1181.82520	12.25194	682.16656	1072.94678	9.31614	627.06677	1036.80200	67.57228	723.98755	907.16235	13.95387	753.58942	835.92737	46.26960	686.24292	812.50995	29.51546	781.59814	749.28644	20.83359
7278	29.10800	616.26947	1419.11108	257.19742	682.08954	1369.97107	393.48828	656.14447	1375.35571	81.74403	747.10150	1283.12561	230.03218	742.79047	1177.51648	465.73199	750.02869	1112.42102	485.80753	691.97461	1058.28259	431.01382	807.80219	1154.00647	369.13885	810.27148	1195.96313	311.32657	818.92859	1128.31665	280.44949	878.54803	1226.36438	252.57013	664.52094	1181.83435	12.24934	682.18750	1072.95142	9.32263	627.11908	1036.84424	67.60644	724.00916	907.16669	13.96804	753.65717	835.97644	46.30023	686.28619	812.55774	29.54984	781.62738	749.29517	20.85941
7279	29.11200	616.28607	1419.11816	257.20667	682.09930	1369.96606	393.49185	656.15973	1375.36926	81.74429	747.10999	1283.12439	230.04715	742.77814	1177.50525	465.73541	750.02838	1112.42151	485.80713	691.98572	1058.31030	430.99689	807.81995	1154.00110	369.15295	810.27930	1195.94958	311.33093	818.95819	1128.30725	280.44949	878.56580	1226.34656	252.57727	664.53894	1181.84619	12.24879	682.20514	1072.95288	9.33262	627.14740	1036.87793	67.61022	724.03052	907.16992	13.98256	753.69568	836.00067	46.32309	686.31873	812.60742	29.54939	781.65955	749.30017	20.88456
